<svg width="52" height="60" viewBox="0 0 52 60" fill="none" xmlns="http://www.w3.org/2000/svg">
<path d="M25.9663 0L26.5482 1.30242V14.2297L25.9663 15.0497L24.8298 15.1487L13.454 8.53778L13.0173 7.52485L25.9665 0" fill="#C5E3EB"/>
<path d="M0.0688477 15.0497L0.359707 15.9661L11.6437 22.3974L13.0176 22.4297L13.5509 21.5614V8.34486L13.0176 7.52466L0.0688477 15.0499" fill="#C5E3EB"/>
<path d="M0.0688477 44.8594L0.55368 43.9188L12.1797 37.2925L13.0176 37.4792L14.0845 37.1899L25.5696 43.7357L25.9663 44.8594L26.3786 45.583V59.3301L25.9663 59.9091L0.0688477 44.8594Z" fill="#78ABDB"/>
<path d="M13.0176 7.52486L25.9661 15.0497L26.5482 16.3519V28.6039L25.9663 29.9546L24.3895 29.8117L13.4299 23.4426L13.0176 22.4297V7.52466" fill="#A4C0C5"/>
<path d="M25.9663 29.9545L25.7006 30.7109L14.3027 37.3345L13.0176 37.4792L12.6296 36.5386V22.9364L13.0176 22.4297L25.9661 29.9545" fill="#7BA6C1"/>
<path d="M0.0688477 44.8594L13.0174 37.4792V22.4297L0.0690508 15.0497V44.8594" fill="#98C3E4"/>
<path d="M25.9663 29.9546L26.3057 30.8952V43.774L25.9663 44.8594L13.0176 37.4792L25.9661 29.9546" fill="#4B7C9E"/>
<path d="M25.9663 59.9091V44.8594L26.6112 44.6881L38.2362 51.4436L38.915 52.3842L25.9663 59.9091Z" fill="#F4BC6A"/>
<path d="M25.9663 29.9545V44.8594L38.9148 52.3842L39.3271 51.2988V38.42L38.9148 37.4792L38.1633 36.4665L26.8429 29.8879L25.9663 29.9545Z" fill="#B48340"/>
<path d="M38.915 22.4297L39.3273 23.081V36.3941L38.915 37.4792L25.9663 29.9545L26.5629 29.0075L37.5087 22.6467L38.915 22.4297Z" fill="#8C3D33"/>
<path d="M25.9663 15.0497L26.8149 14.8325L38.4322 21.4537L38.915 22.4297L25.9663 29.9545V15.0497Z" fill="#C47973"/>
<path d="M38.915 52.3843V37.4792L39.6628 37.3105L51.2574 43.9186L51.8637 44.8594L38.915 52.3843Z" fill="#F4BC6A"/>
<path d="M51.8637 15.0497H50.8193L39.3657 21.5776L38.9148 22.4297V37.4792L51.8637 44.8594V15.0497Z" fill="#BB6651"/>
<path d="M25.9663 0V15.0497L38.9148 22.4297L51.8637 15.0497L25.9663 0Z" fill="#E1938A"/>
</svg>
